<?xml version="1.0" encoding="UTF-8"?>
<!DOCTYPE svg PUBLIC "-//W3C//DTD SVG 1.1//EN" "http://www.w3.org/Graphics/SVG/1.1/DTD/svg11.dtd">
<svg xmlns="http://www.w3.org/2000/svg" version="1.1" width="1366px" height="2000px" style="shape-rendering:geometricPrecision; text-rendering:geometricPrecision; image-rendering:optimizeQuality; fill-rule:evenodd; clip-rule:evenodd" xmlns:xlink="http://www.w3.org/1999/xlink">
<g><path style="opacity:0.984" fill="#fb66ad" d="M 1365.5,556.5 C 1365.5,613.167 1365.5,669.833 1365.5,726.5C 1355.86,727.527 1346.19,727.693 1336.5,727C 1322.91,724.05 1309.25,721.55 1295.5,719.5C 1287.67,719.717 1281.17,722.717 1276,728.5C 1267.06,742.035 1257.4,755.035 1247,767.5C 1219.85,797.066 1186.02,811.399 1145.5,810.5C 1134.11,810.355 1122.78,809.522 1111.5,808C 1090.67,802.946 1070,797.279 1049.5,791C 1039.56,789.46 1029.56,788.46 1019.5,788C 1013.94,787.13 1008.77,785.297 1004,782.5C 995.778,783.305 987.611,784.472 979.5,786C 964.815,797.664 948.482,806.331 930.5,812C 915.833,827.333 901.167,842.667 886.5,858C 874.195,868.61 860.195,876.276 844.5,881C 828.833,890 813.167,899 797.5,908C 766.448,924.906 733.282,934.739 698,937.5C 676.577,936.207 655.577,932.541 635,926.5C 575.766,907.13 517.933,884.297 461.5,858C 421.035,841.257 379.035,835.59 335.5,841C 322.748,842.014 310.081,843.681 297.5,846C 277.897,848.382 258.897,846.049 240.5,839C 229.182,833.02 219.682,824.853 212,814.5C 205.433,801.527 196.599,790.36 185.5,781C 174.438,773.865 162.438,768.865 149.5,766C 133.204,764.003 116.871,762.336 100.5,761C 86.5626,759.48 73.2293,755.813 60.5,750C 49.8333,744 39.1667,738 28.5,732C 19.2533,727.984 9.58659,725.817 -0.5,725.5C -0.5,680.5 -0.5,635.5 -0.5,590.5C 6.36917,596.431 14.3692,599.931 23.5,601C 32.1667,601.667 40.8333,601.667 49.5,601C 74.6213,598.532 99.788,596.698 125,595.5C 166.495,595.582 199.828,611.915 225,644.5C 234.087,657.667 242.42,671.333 250,685.5C 253.735,691.904 258.235,697.737 263.5,703C 266.207,704.057 269.04,704.557 272,704.5C 279.929,703.986 287.763,702.82 295.5,701C 313.695,694.268 332.028,687.935 350.5,682C 365.585,678.971 379.919,680.971 393.5,688C 398.583,693.071 401.25,699.238 401.5,706.5C 410.96,710.747 415.293,718.08 414.5,728.5C 438.521,736.089 462.854,742.589 487.5,748C 500.722,753.889 510.722,763.222 517.5,776C 529.164,777.286 540.831,778.619 552.5,780C 558.755,781.545 564.588,784.045 570,787.5C 592.631,782.821 611.798,788.988 627.5,806C 630.44,807.152 633.44,808.152 636.5,809C 665.653,814.546 694.986,818.879 724.5,822C 762.055,826.855 797.055,819.689 829.5,800.5C 833.69,780.122 842.19,761.789 855,745.5C 860.975,737.435 868.808,732.268 878.5,730C 885.901,729.188 893.234,728.188 900.5,727C 908.856,719.642 916.856,711.976 924.5,704C 929.38,701.393 934.38,699.06 939.5,697C 953.012,693.769 966.679,691.436 980.5,690C 983.446,689.194 986.112,687.861 988.5,686C 993.258,681.633 997.425,676.8 1001,671.5C 1008.61,658.897 1016.61,646.564 1025,634.5C 1034.04,624.937 1045.21,620.271 1058.5,620.5C 1064.57,620.773 1070.57,621.44 1076.5,622.5C 1086.56,617.978 1096.9,614.145 1107.5,611C 1119.56,610.48 1131.56,610.813 1143.5,612C 1148.83,608.333 1154.17,604.667 1159.5,601C 1164.64,598.73 1169.98,597.063 1175.5,596C 1190.88,595.918 1206.21,595.251 1221.5,594C 1227.63,591.873 1233.29,588.873 1238.5,585C 1249.45,577.048 1260.12,568.715 1270.5,560C 1288.71,552.225 1307.71,548.558 1327.5,549C 1340.36,550.549 1353.03,553.049 1365.5,556.5 Z"/></g>
</svg>
