<?xml version="1.0" encoding="UTF-8"?>
<!DOCTYPE svg PUBLIC "-//W3C//DTD SVG 1.1//EN" "http://www.w3.org/Graphics/SVG/1.1/DTD/svg11.dtd">
<svg xmlns="http://www.w3.org/2000/svg" version="1.1" width="1366px" height="2000px" style="shape-rendering:geometricPrecision; text-rendering:geometricPrecision; image-rendering:optimizeQuality; fill-rule:evenodd; clip-rule:evenodd" xmlns:xlink="http://www.w3.org/1999/xlink">
<g><path style="opacity:1" fill="#653196" d="M 1365.5,687.5 C 1365.5,794.167 1365.5,900.833 1365.5,1007.5C 1362.77,1007.74 1360.44,1006.9 1358.5,1005C 1341.68,987.753 1322.02,974.753 1299.5,966C 1281.97,959.269 1264.31,952.936 1246.5,947C 1243.17,945.333 1239.83,943.667 1236.5,942C 1229.63,934.446 1222.63,926.946 1215.5,919.5C 1214.02,915.715 1212.35,912.048 1210.5,908.5C 1202.39,903.622 1195.56,904.955 1190,912.5C 1188.09,916.66 1185.92,920.66 1183.5,924.5C 1176.38,927.04 1169.38,929.873 1162.5,933C 1157.8,937.068 1153.8,941.734 1150.5,947C 1134.83,953.78 1118.83,959.78 1102.5,965C 1097.83,965.667 1093.17,965.667 1088.5,965C 1081.69,961.929 1074.69,959.429 1067.5,957.5C 1059.76,959.038 1052.76,962.205 1046.5,967C 1038.42,975.084 1029.75,982.418 1020.5,989C 1003.12,997.855 987.118,995.855 972.5,983C 958.765,968.679 946.599,953.179 936,936.5C 933.162,932.658 929.496,929.991 925,928.5C 922.343,929.686 919.843,931.019 917.5,932.5C 910.691,929.536 905.191,924.87 901,918.5C 895.686,922.79 890.019,923.457 884,920.5C 882.568,917.998 882.402,915.498 883.5,913C 880.542,912.771 878.042,911.604 876,909.5C 873.425,912.319 871.092,915.319 869,918.5C 865.342,926.486 861.175,934.153 856.5,941.5C 855.5,941.833 854.5,942.167 853.5,942.5C 850.829,941.643 848.163,941.143 845.5,941C 829.76,968.409 807.427,988.409 778.5,1001C 766.914,1003.87 755.248,1006.21 743.5,1008C 739.835,1009.5 736.502,1011.5 733.5,1014C 729.116,1019.05 724.116,1023.38 718.5,1027C 704.723,1034.05 690.39,1039.72 675.5,1044C 657.554,1045.98 642.721,1040.14 631,1026.5C 629.275,1023.33 627.942,1019.99 627,1016.5C 623.275,1015.22 619.942,1013.22 617,1010.5C 615.309,1005.17 613.809,999.835 612.5,994.5C 610.228,993.515 607.895,992.681 605.5,992C 602.266,988.367 599.932,984.201 598.5,979.5C 587.881,966.533 574.214,961.366 557.5,964C 549.72,962.219 543.553,958.053 539,951.5C 530.71,939.754 522.543,927.92 514.5,916C 508.538,916.15 502.871,917.65 497.5,920.5C 480.983,938.517 461.983,953.35 440.5,965C 429.346,968.431 418.013,971.097 406.5,973C 402.406,973.767 398.406,973.434 394.5,972C 391.374,966.915 388.374,961.749 385.5,956.5C 383.5,955.833 381.5,955.167 379.5,954.5C 377.625,951.249 375.625,948.082 373.5,945C 369.965,943.294 366.298,941.96 362.5,941C 354.303,931.283 345.803,931.116 337,940.5C 335.328,946.507 331.495,948.673 325.5,947C 308.666,939.494 295.666,927.827 286.5,912C 278.967,912.459 271.967,910.793 265.5,907C 260.457,902.288 255.123,897.955 249.5,894C 245.167,891.416 240.5,889.749 235.5,889C 232.054,878.06 228.221,867.227 224,856.5C 203.216,819.218 172.049,806.718 130.5,819C 102.84,823.827 76.5065,832.494 51.5,845C 46.5782,848.378 41.7449,851.878 37,855.5C 32.9617,859.445 31.4617,864.112 32.5,869.5C 33.1322,880.097 28.4655,886.93 18.5,890C 12.2041,891.012 5.87077,891.512 -0.5,891.5C -0.5,823.167 -0.5,754.833 -0.5,686.5C 22.4641,693.982 41.7974,706.815 57.5,725C 59.6705,726.586 62.0038,727.92 64.5,729C 71.1534,728.516 77.8201,727.683 84.5,726.5C 89.1193,728.247 93.4526,727.747 97.5,725C 107.376,723.005 113.209,726.839 115,736.5C 115.833,737.333 116.667,738.167 117.5,739C 129.758,737.525 142.091,736.858 154.5,737C 160.569,738.868 166.235,741.535 171.5,745C 173.371,747.37 175.038,749.87 176.5,752.5C 177.5,753 178.5,753.5 179.5,754C 187.137,753.815 194.47,755.149 201.5,758C 206.625,764.793 212.125,771.293 218,777.5C 220.194,781.749 222.194,786.082 224,790.5C 227.035,793.87 230.368,796.87 234,799.5C 237.047,805.299 239.714,811.299 242,817.5C 244.989,821.491 248.822,824.324 253.5,826C 264.377,829.099 275.377,829.765 286.5,828C 302.319,822.282 318.319,816.949 334.5,812C 393.769,798.326 450.436,805.326 504.5,833C 533.812,850.323 562.478,868.656 590.5,888C 610.802,901 632.468,911.334 655.5,919C 679.974,925.679 704.641,926.679 729.5,922C 744.96,918.409 758.627,911.409 770.5,901C 781.087,889.75 790.921,877.917 800,865.5C 805.904,858.926 812.404,853.092 819.5,848C 823.271,845.781 827.271,844.115 831.5,843C 840.34,842.482 849.174,842.648 858,843.5C 865.614,844.358 871.614,841.691 876,835.5C 879.003,828.831 883.169,822.998 888.5,818C 892.583,815.895 896.917,814.562 901.5,814C 917.118,814.675 932.118,812.008 946.5,806C 953.64,802.263 960.64,798.263 967.5,794C 986.332,778.835 1006,764.835 1026.5,752C 1046.51,741.374 1067.51,739.041 1089.5,745C 1113.05,754.623 1136.38,764.623 1159.5,775C 1186.63,782.739 1207.8,774.906 1223,751.5C 1231,735.48 1239,719.48 1247,703.5C 1274.14,672.421 1305.48,667.421 1341,688.5C 1349.16,686.499 1357.33,686.165 1365.5,687.5 Z"/></g>
</svg>
